<svg id="Layer_1" data-name="Layer 1" xmlns="http://www.w3.org/2000/svg" viewBox="0 0 374.67 282.34"><title>backbtn</title><path d="M663.37,435.33c3.41-3.72,5.38-6,7.52-8.17,15.09-15.17,30.29-30.23,45.3-45.49,13.36-13.59,13.71-33.65,1-46.37s-32-12.42-45.46,1q-54.35,54.06-108.32,108.49a31.41,31.41,0,0,0-.1,44.76q54.27,54.81,109,109.16c13,12.9,32.39,12.8,44.75.57s12.51-32.64-.16-45.67C701.83,538,686.34,522.77,671,507.36c-2.15-2.16-4.16-4.46-7.68-8.26h12.07c73.46,0,146.92.21,220.38-.32a44.88,44.88,0,0,0,22.88-7.15c11.62-7.55,11.57-24.51,7.7-37.84-3.47-11.92-15-18.41-29.52-18.42q-110.67-.09-221.34,0Z" transform="translate(-554.04 -326.04)"/></svg>